<?xml version="1.0" standalone="no"?>
<!DOCTYPE svg PUBLIC "-//W3C//DTD SVG 20010904//EN"
 "http://www.w3.org/TR/2001/REC-SVG-20010904/DTD/svg10.dtd">
<svg version="1.0" xmlns="http://www.w3.org/2000/svg"
 width="512.000000pt" height="512.000000pt" viewBox="0 0 512.000000 512.000000"
 preserveAspectRatio="xMidYMid meet">

<g transform="translate(0.000000,512.000000) scale(0.100000,-0.100000)"
fill="#000000" stroke="none">
<path d="M1130 4745 c-275 -46 -533 -178 -725 -370 -115 -114 -180 -202 -249
-335 -113 -219 -151 -376 -151 -625 0 -239 38 -402 141 -607 96 -192 83 -179
1233 -1331 597 -599 1098 -1095 1113 -1103 35 -18 101 -18 136 0 15 8 516 504
1113 1103 1159 1161 1136 1136 1234 1333 153 306 185 654 89 988 -33 117 -128
309 -204 412 -164 223 -403 398 -661 484 -126 42 -218 57 -379 63 -187 7 -312
-10 -468 -62 -233 -78 -376 -173 -618 -408 l-175 -170 -152 150 c-83 82 -186
176 -228 209 -176 140 -387 232 -614 269 -108 18 -331 18 -435 0z m310 -285
c182 -18 327 -69 480 -168 63 -40 147 -116 325 -292 336 -333 294 -333 630 -1
246 243 307 293 442 360 150 74 276 103 453 103 200 0 374 -48 541 -148 94
-56 230 -180 301 -274 69 -90 144 -246 175 -365 23 -88 26 -119 26 -260 0
-142 -3 -171 -26 -260 -60 -225 -140 -347 -397 -607 l-195 -198 -334 45 c-184
25 -337 45 -340 45 -11 0 76 83 119 113 42 30 53 32 150 38 128 6 210 33 307
99 89 61 173 162 231 279 44 87 47 100 47 171 0 67 -3 82 -28 118 -41 63 -89
90 -182 102 -44 6 -111 17 -150 25 -65 14 -75 20 -130 76 -33 33 -97 85 -141
115 -77 51 -220 124 -243 124 -27 0 -6 21 58 59 79 47 108 78 117 128 19 102
-77 196 -178 174 -62 -14 -300 -172 -456 -303 -164 -138 -348 -340 -441 -486
-18 -28 -37 -52 -41 -52 -5 0 -23 35 -40 78 -81 195 -169 327 -283 423 -235
198 -541 213 -880 43 l-68 -34 -208 0 c-232 0 -276 -8 -357 -63 -104 -69 -163
-193 -151 -318 20 -228 321 -507 657 -609 173 -53 187 -59 242 -114 125 -124
211 -346 258 -666 20 -138 42 -431 34 -440 -10 -9 -1221 1215 -1267 1281 -66
93 -133 238 -164 354 -23 89 -26 118 -26 260 0 142 3 171 26 260 50 185 130
326 267 468 172 180 401 293 640 316 47 5 90 9 95 9 6 1 53 -3 105 -8z m527
-918 c100 -48 191 -161 253 -310 214 -514 588 -908 985 -1035 95 -31 122 -35
458 -79 141 -18 257 -35 257 -38 0 -3 -306 -311 -680 -685 l-680 -680 -245
245 -245 245 0 150 c0 637 -110 1135 -308 1396 -106 139 -212 211 -378 255
-172 46 -283 106 -407 223 -65 61 -107 122 -107 155 0 8 7 22 16 30 13 14 50
16 245 16 l229 0 91 46 c50 25 92 44 94 42 1 -2 7 -32 14 -68 29 -155 100
-316 156 -350 43 -26 119 -27 162 0 71 43 83 125 34 230 -35 74 -61 168 -61
218 0 33 1 33 33 27 17 -4 56 -19 84 -33z m1433 -123 c118 -45 198 -97 287
-186 45 -45 94 -88 110 -96 15 -8 71 -25 123 -37 123 -29 120 -28 120 -39 0
-23 -108 -126 -155 -148 -42 -19 -66 -23 -153 -23 -91 0 -109 -3 -155 -26
-116 -59 -273 -197 -342 -301 -15 -24 -31 -43 -34 -43 -15 0 -148 84 -205 129
-68 55 -163 151 -220 223 l-38 48 32 57 c82 146 183 277 317 414 l85 86 76
-14 c43 -8 111 -28 152 -44z"/>
</g>
</svg>
