<?xml version="1.0" standalone="no"?>
<!DOCTYPE svg PUBLIC "-//W3C//DTD SVG 20010904//EN"
 "http://www.w3.org/TR/2001/REC-SVG-20010904/DTD/svg10.dtd">
<svg version="1.0" xmlns="http://www.w3.org/2000/svg"
 width="512.000000pt" height="512.000000pt" viewBox="0 0 512.000000 512.000000"
 preserveAspectRatio="xMidYMid meet">

<g transform="translate(0.000000,512.000000) scale(0.100000,-0.100000)"
fill="#000000" stroke="none">
<path d="M1657 4900 c-192 -24 -363 -204 -443 -465 -26 -85 -28 -101 -28 -285
0 -181 2 -202 26 -290 91 -327 297 -551 544 -592 137 -23 256 22 374 140 63
62 86 95 123 172 77 157 90 224 91 440 0 171 -2 192 -27 285 -107 387 -376
630 -660 595z m178 -228 c122 -61 236 -230 292 -433 25 -90 25 -347 -1 -439
-38 -140 -115 -255 -204 -308 -168 -98 -399 69 -497 358 -35 102 -45 172 -46
298 0 180 45 333 130 440 93 117 203 146 326 84z"/>
<path d="M3284 4887 c-182 -60 -338 -222 -432 -449 -49 -118 -72 -228 -79
-373 -12 -276 71 -520 229 -671 127 -123 276 -162 429 -114 267 83 468 381
509 752 40 355 -109 707 -348 825 -68 34 -83 38 -171 40 -60 2 -111 -2 -137
-10z m225 -212 c157 -79 259 -351 231 -617 -13 -123 -32 -196 -79 -293 -118
-247 -294 -356 -449 -279 -206 102 -301 485 -200 804 98 307 317 477 497 385z"/>
<path d="M404 3476 c-173 -40 -309 -171 -371 -360 -23 -71 -26 -98 -27 -216
-1 -160 20 -251 89 -399 118 -247 307 -417 537 -481 285 -79 554 86 635 390
23 88 23 269 -1 370 -56 241 -203 460 -392 586 -153 102 -328 142 -470 110z
m247 -216 c241 -95 427 -376 432 -650 2 -156 -29 -247 -113 -331 -36 -36 -62
-52 -106 -65 -281 -82 -626 249 -659 632 -28 319 186 516 446 414z"/>
<path d="M4513 3479 c-163 -27 -352 -148 -468 -299 -140 -182 -207 -373 -208
-590 -1 -197 47 -326 167 -446 99 -99 208 -144 345 -144 410 0 801 484 768
950 -26 357 -284 582 -604 529z m224 -225 c123 -59 192 -213 179 -396 -14
-193 -91 -356 -235 -498 -173 -171 -385 -209 -520 -94 -86 74 -125 178 -124
329 1 192 84 386 224 524 159 157 329 205 476 135z"/>
<path d="M2380 3031 c-203 -45 -394 -169 -504 -324 -24 -34 -89 -152 -145
-263 -159 -315 -277 -485 -502 -720 -70 -73 -133 -150 -157 -191 -243 -416
-109 -932 305 -1181 134 -81 275 -121 443 -129 128 -6 150 -3 381 46 210 45
508 45 718 0 53 -11 127 -27 164 -35 92 -20 283 -20 375 0 217 47 419 174 547
344 220 293 229 694 22 1002 -17 25 -85 101 -152 170 -229 236 -353 418 -513
753 -74 156 -128 233 -224 321 -202 187 -493 267 -758 207z m330 -196 c113
-27 224 -89 310 -174 72 -72 83 -88 174 -271 189 -377 318 -563 557 -800 107
-107 155 -179 195 -295 24 -69 28 -96 28 -195 0 -199 -54 -330 -194 -470 -190
-191 -439 -256 -720 -187 -177 43 -310 59 -500 59 -187 0 -303 -14 -500 -58
-209 -47 -395 -23 -570 73 -101 56 -218 179 -269 283 -93 191 -94 393 0 588
34 70 59 102 167 215 236 245 390 471 542 791 33 71 81 158 106 192 80 113
222 209 362 245 84 22 227 23 312 4z"/>
<path d="M2930 2299 c-61 -24 -84 -82 -56 -137 20 -38 44 -52 89 -52 39 0 83
34 93 74 17 70 -60 141 -126 115z"/>
<path d="M3087 1930 c-30 -24 -45 -80 -29 -114 34 -75 260 -363 356 -454 45
-43 61 -52 91 -52 52 0 95 44 95 98 0 35 -8 49 -66 113 -96 107 -171 200 -252
315 -44 63 -80 104 -94 108 -42 11 -75 6 -101 -14z"/>
</g>
</svg>
